#!OML:ASF F:\VICON\USERDATA\INSTALL\Justin_Nancy\Justin_Nancy.ASF
:FULLY-SPECIFIED
:DEGREES
173
root 2.62134 16.7725 3.46278 -121.657 -76.4485 128.636
lowerback 9.37044 1.14728 -6.59389
upperback 0.0881875 0.661743 -1.72995
thorax -5.23517 0.447388 1.80787
lowerneck -18.1617 -3.32041 -9.11212
upperneck 20.5772 -3.97116 7.54139
head 9.86766 -1.75671 3.61227
rclavicle -2.18663e-014 -1.98785e-014
rhumerus -37.9527 -21.3863 -71.5001
rradius 32.6657
rwrist 7.97974
rhand -18.7287 6.9889
rfingers 7.12502
rthumb 7.56702 -22.8557
lclavicle -2.18663e-014 -1.98785e-014
lhumerus -27.3303 16.5805 68.9539
lradius 29.2229
lwrist 1.533
lhand -19.9542 25.7687
lfingers 7.12502
lthumb 6.38404 55.6525
rfemur -11.9079 4.74724 14.7974
rtibia 71.0406
rfoot 4.56488 0.532587
rtoes 1.18897
lfemur -21.7611 9.87231 -30.2882
ltibia 24.8626
lfoot -25.5677 10.3817
ltoes -28.936
174
root 2.42536 16.7833 3.52477 -118.577 -76.4445 125.287
lowerback 9.61648 0.738613 -6.86858
upperback 0.0213264 0.0632515 -1.70708
thorax -5.39711 0.16584 2.06742
lowerneck -18.2192 -3.14491 -9.69268
upperneck 20.668 -3.54618 7.51333
head 9.88127 -1.60893 3.76204
rclavicle -2.38542e-015 3.18055e-015
rhumerus -38.3444 -21.8228 -70.3435
rradius 31.0915
rwrist 7.64463
rhand -19.0367 7.19141
rfingers 7.12502
rthumb 7.26974 -22.6637
lclavicle -2.38542e-015 3.18055e-015
lhumerus -27.089 16.4592 69.0501
lradius 29.3338
lwrist 1.59891
lhand -19.9015 26.1692
lfingers 7.12502
lthumb 6.43489 56.0514
rfemur -13.8145 3.50038 14.2832
rtibia 73.5906
rfoot 2.95226 -0.179565
rtoes 5.10308
lfemur -20.0857 9.26763 -30.8793
ltibia 23.5932
lfoot -25.8987 10.6582
ltoes -27.9829
175
root 2.22809 16.7933 3.57678 -115.068 -76.1952 121.523
lowerback 9.78539 0.401551 -7.5011
upperback -0.0213854 -0.475499 -1.67682
thorax -5.48787 -0.0790587 2.52958
lowerneck -18.3152 -2.97767 -10.4639
upperneck 20.8149 -3.09308 7.56075
head 9.92155 -1.45582 3.97627
rclavicle 2.62396e-014 -1.51076e-014
rhumerus -38.6655 -22.134 -69.3126
rradius 29.5185
rwrist 6.79368
rhand -19.1441 7.2628
rfingers 7.12502
rthumb 7.16607 -22.5959
lclavicle 2.62396e-014 -1.51076e-014
lhumerus -26.6621 15.8451 69.3732
lradius 29.3057
lwrist 1.64736
lhand -20.5533 26.6255
lfingers 7.12502
lthumb 5.80562 56.526
rfemur -15.6825 2.36301 13.6047
rtibia 75.7732
rfoot 1.27704 -0.758682
rtoes 7.09441
lfemur -18.6898 8.91223 -31.7724
ltibia 22.7751
lfoot -26.7275 11.1131
ltoes -28.6406
176
root 2.02488 16.7975 3.62742 -111.955 -76.1878 118.297
lowerback 9.67063 0.218587 -7.6683
upperback -0.0319694 -0.737324 -1.80193
thorax -5.40889 -0.208868 2.5278
lowerneck -18.2661 -3.00531 -10.6149
upperneck 20.8056 -3.07536 7.4945
head 9.90947 -1.46785 3.97992
rclavicle -1.39149e-014 2.62396e-014
rhumerus -39.2665 -23.0684 -68.4022
rradius 28.0386
rwrist 6.36192
rhand -19.5193 7.27273
rfingers 7.12502
rthumb 6.80388 -22.5979
lclavicle -1.39149e-014 2.62396e-014
lhumerus -25.8655 15.211 69.6428
lradius 29.0711
lwrist 0.621938
lhand -20.8456 26.5641
lfingers 7.12502
lthumb 5.52345 56.4721
rfemur -17.5544 1.28724 13.3664
rtibia 77.5236
rfoot -0.199006 -1.108
rtoes 7.70296
lfemur -17.6894 8.92728 -32.3719
ltibia 22.4958
lfoot -27.6383 11.9282
ltoes -29.3623
177
root 1.81911 16.8026 3.68757 -110.314 -77.2657 116.545
lowerback 9.57995 0.0160174 -6.53414
upperback 0.00493004 -0.85289 -1.68459
thorax -5.31651 -0.293951 2.03219
lowerneck -18.1038 -3.16504 -10.0645
upperneck 20.5594 -3.31686 6.90409
head 9.79771 -1.59985 3.63588
rclavicle -1.2921e-014 -1.98785e-014
rhumerus -40.0259 -24.6278 -67.2194
rradius 26.5756
rwrist 7.41902
rhand -19.7718 7.1498
rfingers 7.12502
rthumb 6.56009 -22.7286
lclavicle -1.2921e-014 -1.98785e-014
lhumerus -25.022 14.9175 69.9341
lradius 28.8975
lwrist -0.720265
lhand -20.3715 26.3383
lfingers 7.12502
lthumb 5.98113 56.2339
rfemur -19.1909 0.227025 14.573
rtibia 78.7679
rfoot -1.52008 -1.5199
rtoes 6.93971
lfemur -16.9124 9.20956 -31.688
ltibia 22.6954
lfoot -28.2614 13.0257
ltoes -29.4578
178
root 1.6254 16.8065 3.72672 -108.379 -78.4437 114.766
lowerback 9.49064 -0.345273 -5.84837
upperback -0.140332 -1.21532 -1.21601
thorax -5.38973 -0.472831 2.18801
lowerneck -18.0821 -3.17919 -9.93892
upperneck 20.5176 -3.26487 6.46315
head 9.76537 -1.61488 3.46348
rclavicle -7.55382e-015 1.90833e-014
rhumerus -40.7106 -25.5985 -65.7672
rradius 25.3521
rwrist 9.23648
rhand -18.8382 7.06544
rfingers 7.12502
rthumb 7.46129 -22.783
lclavicle -7.55382e-015 1.90833e-014
lhumerus -24.5737 14.985 70.2874
lradius 28.8329
lwrist -1.26295
lhand -20.982 26.2008
lfingers 7.12502
lthumb 5.39173 56.1122
rfemur -21.2442 -0.748286 16.122
rtibia 79.757
rfoot -2.636 -2.2714
rtoes 4.77358
lfemur -16.3243 9.21964 -30.8076
ltibia 22.5248
lfoot -28.9299 13.6676
ltoes -29.7277
179
root 1.43923 16.8088 3.77556 -106.535 -79.5862 113.263
lowerback 9.26526 -0.775221 -4.99867
upperback -0.325182 -1.6444 -0.726086
thorax -5.42857 -0.690661 2.27911
lowerneck -18.1024 -3.0749 -10.2316
upperneck 20.5336 -3.01205 6.37948
head 9.75587 -1.53046 3.51794
rclavicle -9.93923e-016 -1.27222e-014
rhumerus -41.1771 -25.8777 -64.6258
rradius 24.3444
rwrist 10.3248
rhand -18.0236 7.19403
rfingers 7.12502
rthumb 8.24752 -22.625
lclavicle -9.93923e-016 -1.27222e-014
lhumerus -24.1877 15.6059 70.5245
lradius 28.7953
lwrist -1.86887
lhand -21.3526 26.3946
lfingers 7.12502
lthumb 5.03393 56.3148
rfemur -23.617 -1.457 17.6824
rtibia 80.512
rfoot -3.78164 -2.98968
rtoes 3.61053
lfemur -16.1004 9.00796 -29.9123
ltibia 22.6225
lfoot -29.2941 14.3448
ltoes -29.9511
